<svg width="24" height="24" viewBox="0 0 24 24" fill="none" xmlns="http://www.w3.org/2000/svg" role="img" aria-labelledby="servings-title">
  <title id="servings-title">Servings</title>
  <path d="M8 12.5C6.2 12.5 4.8 11.1 4.8 9.3C4.8 7.5 6.2 6.1 8 6.1C9.8 6.1 11.2 7.5 11.2 9.3C11.2 11.1 9.8 12.5 8 12.5Z" stroke="#FFFFFF" stroke-width="1.8"/>
  <path d="M16 12.5C14.2 12.5 12.8 11.1 12.8 9.3C12.8 7.5 14.2 6.1 16 6.1C17.8 6.1 19.2 7.5 19.2 9.3C19.2 11.1 17.8 12.5 16 12.5Z" stroke="#FFFFFF" stroke-width="1.8"/>
  <path d="M3.8 19C4.4 16.8 6 15.5 8 15.5C10 15.5 11.6 16.8 12.2 19" stroke="#FFFFFF" stroke-width="1.8" stroke-linecap="round"/>
  <path d="M11.8 19C12.4 16.8 14 15.5 16 15.5C18 15.5 19.6 16.8 20.2 19" stroke="#FFFFFF" stroke-width="1.8" stroke-linecap="round"/>
</svg>
