<svg width="44" height="44" viewBox="0 0 44 44" fill="none" xmlns="http://www.w3.org/2000/svg" role="img" aria-labelledby="flavorly-mark-title">
  <title id="flavorly-mark-title">Flavorly mark</title>
  <rect width="44" height="44" rx="14" fill="#FFE6D6"/>
  <path d="M13 20h18l-1.4 11.1A5 5 0 0 1 24.7 36h-5.4a5 5 0 0 1-4.9-4.9L13 20Z" fill="#E94332"/>
  <path d="M12 18.5c0-1.4 1.1-2.5 2.5-2.5h15c1.4 0 2.5 1.1 2.5 2.5S30.9 21 29.5 21h-15c-1.4 0-2.5-1.1-2.5-2.5Z" fill="#FF7A59"/>
  <path d="M17.5 16c0-3 2.4-5.5 5.5-5.5" stroke="#D86B18" stroke-width="3" stroke-linecap="round"/>
  <path d="M24.6 9.3c3.7-2.8 7.2-1.4 7.2-1.4s-.2 3.9-3.9 6c-2.7 1.5-5.4.6-5.4.6s-.2-3.2 2.1-5.2Z" fill="#3FA66B"/>
</svg>
